<svg fill="none" height="25" viewBox="0 0 31 25" width="31" xmlns="http://www.w3.org/2000/svg"><g fill="#fff"><path d="m28 2-2.6549 9.8923-1.4381-1.4289-13.6062 13.5195-.9956-.9892 3.9823-3.9569-.6637-.6595-3.98232 3.9569-.99558-.9892 3.9823-3.957-.7743-.7694-3.98234 3.957-.99558-.9893 13.60622-13.51946-1.438-1.42889z"/><path d="m3 2 9.9558 2.63795-1.4381 1.42889 13.6063 13.51946-.9956.9893-3.9823-3.957-.6637.7694 3.9823 3.957-.9956.9892-3.9823-3.9569-.7743.6595 3.9823 3.9569-.9956.9892-13.60626-13.5195-1.43806 1.4289z"/></g></svg>