<svg width="65" height="65" viewBox="0 0 65 65" fill="none" xmlns="http://www.w3.org/2000/svg">
<path fill-rule="evenodd" clip-rule="evenodd" d="M50.0003 46.9621C53.8662 46.9621 57.0002 43.8281 57.0002 39.9621C57.0002 36.0961 53.8662 32.9622 50.0003 32.9622C46.1343 32.9622 43.0003 36.0961 43.0003 39.9621C43.0003 43.8281 46.1343 46.9621 50.0003 46.9621ZM50.0016 42.8899C51.6176 42.8899 52.9277 41.5798 52.9277 39.9637C52.9277 38.3477 51.6176 37.0376 50.0016 37.0376C48.3855 37.0376 47.0755 38.3477 47.0755 39.9637C47.0755 41.5798 48.3855 42.8899 50.0016 42.8899Z" fill="white"/>
<path d="M20.4999 39.9621C20.4999 42.9997 18.0375 45.4621 15 45.4621V48.4621C19.6944 48.4621 23.4999 44.6565 23.4999 39.9621H20.4999ZM15 45.4621C11.9624 45.4621 9.5 42.9997 9.5 39.9621H6.5C6.5 44.6565 10.3056 48.4621 15 48.4621V45.4621ZM9.5 39.9621C9.5 36.9246 11.9624 34.4622 15 34.4622V31.4622C10.3056 31.4622 6.5 35.2677 6.5 39.9621H9.5ZM15 34.4622C18.0375 34.4622 20.4999 36.9246 20.4999 39.9621H23.4999C23.4999 35.2677 19.6944 31.4622 15 31.4622V34.4622Z" fill="black"/>
<circle cx="50.0003" cy="39.9621" r="6.99996" stroke="black" stroke-width="3"/>
<circle cx="26.4999" cy="39.4621" r="2.49998" stroke="white" stroke-width="2"/>
<path d="M28.9998 27.4621L41.3843 24.9622L42.4997 27.4621L39.9997 28.4621L31.4998 33.9621L28.9998 27.4621Z" fill="white"/>
<path d="M21.5001 26.9622L27.8 27.4622L28.617 29.5565H22.7925L21.5001 26.9622Z" fill="white"/>
<path d="M46.3675 18L38.9713 20.3113L40.4997 22.4622L47.4997 21.4622L46.3675 18Z" fill="white"/>
<path d="M26.0001 24.6622L25.1037 22.6226L20.4811 22.9623L17.2453 22.6226L18.0001 25.0622H21.0001L26.0001 24.6622Z" fill="white"/>
<path d="M40.9997 23.9624L39.4997 20.9624H41.9997V23.9624H40.9997Z" fill="white"/>
<path d="M24.3007 37.2621L20.5002 25.9622H22.3305L26.9531 36.9527L24.3007 37.2621Z" fill="white"/>
<path d="M32.9997 33.9621L40.4997 27.9622L29.9998 29.4622L30.4998 31.9621L26.9526 36.4904L29.264 39.264L32.9997 33.9621Z" fill="white"/>
<path fill-rule="evenodd" clip-rule="evenodd" d="M14.9985 45.5692C18.0979 45.5692 20.6104 43.0567 20.6104 39.9573C20.6104 36.858 18.0979 34.3455 14.9985 34.3455C11.8992 34.3455 9.38669 36.858 9.38669 39.9573C9.38669 43.0567 11.8992 45.5692 14.9985 45.5692ZM15.0034 42.8884C16.6195 42.8884 17.9295 41.5783 17.9295 39.9623C17.9295 38.3462 16.6195 37.0361 15.0034 37.0361C13.3874 37.0361 12.0773 38.3462 12.0773 39.9623C12.0773 41.5783 13.3874 42.8884 15.0034 42.8884Z" fill="white"/>
<path fill-rule="evenodd" clip-rule="evenodd" d="M47.8153 38.0183C48.3513 37.4166 49.132 37.0376 50.0011 37.0376C50.0647 37.0376 50.1277 37.0397 50.1902 37.0436L44.0564 24.0093L42.4999 24.6621L47.8153 38.0183Z" fill="white"/>
<path fill-rule="evenodd" clip-rule="evenodd" d="M16.4489 37.4175C17.2025 37.8464 17.7469 38.6004 17.8915 39.4887L24.5 33.9621L23.7171 32.7923L16.4489 37.4175Z" fill="white"/>
</svg>
