<svg width="31" height="25" viewBox="0 0 31 25" fill="none" xmlns="http://www.w3.org/2000/svg">
<path d="M30.201 9.38423C29.843 9.29998 29.3156 9.28565 28.5574 9.47858C26.7452 9.9411 25.9305 13.017 24.7662 13.7087C24.1588 14.0692 22.9768 13.7432 21.8782 13.2773C21.4936 12.8414 21.2151 12.3223 21.0644 11.7609C20.5858 9.98491 19.2657 8.93855 19.2657 8.93855C19.0896 9.52071 18.1351 10.3598 17.7492 10.7524C17.3853 10.4828 17.0533 10.2343 16.8225 10.0633C16.7406 10.0016 16.6855 9.91082 16.6686 9.80971C16.6516 9.70861 16.6742 9.60485 16.7315 9.51986C17.1276 8.90936 17.455 8.25697 17.7079 7.57458C17.734 7.50479 17.7399 7.42908 17.725 7.3561C17.7101 7.28311 17.675 7.21578 17.6237 7.16177C17.2614 6.77675 16.349 5.8694 15.3321 5.30831C14.3372 4.75733 12.8704 4.19034 11.6657 4.06734C9.39098 3.83482 7.80965 4.25774 7.07753 4.52733C7.02069 4.54797 6.96927 4.58124 6.92717 4.62464C6.88506 4.66804 6.85336 4.72044 6.83445 4.77788C6.81555 4.83532 6.80994 4.8963 6.81804 4.95623C6.82615 5.01615 6.84775 5.07345 6.88123 5.12381C7.62971 6.28999 8.27255 7.52068 8.80209 8.80123C8.82493 8.85683 8.83495 8.91686 8.83141 8.97686C8.82788 9.03687 8.81087 9.0953 8.78165 9.14783C8.75243 9.20036 8.71175 9.24563 8.66264 9.28028C8.61353 9.31494 8.55724 9.33808 8.49795 9.348C7.57122 9.51059 6.46926 9.4095 5.38078 9.40529C3.82641 9.39855 3.45066 9.41708 2.22317 9.91667C1.35626 10.2697 0.959454 11.6791 1.00326 12.8653C1.00998 13.0144 1.05128 13.1599 1.12391 13.2903C1.19655 13.4207 1.29851 13.5324 1.42175 13.6165C1.54499 13.7007 1.68613 13.7551 1.83399 13.7753C1.98186 13.7955 2.1324 13.7811 2.27372 13.7331L2.29057 13.7272C3.1044 13.4686 3.79776 13.6269 4.56526 14.0254C5.43638 14.477 6.89219 15.4231 7.38672 16.2344C7.88126 17.0457 7.91496 16.9488 6.68157 17.1755C5.32939 17.4282 4.04292 18.194 3.3959 18.1072C2.9789 18.0514 2.58705 17.8758 2.26782 17.6018C2.21624 17.5591 2.15477 17.5301 2.08905 17.5174C2.02334 17.5047 1.95549 17.5088 1.89174 17.5291C1.82799 17.5495 1.77038 17.5856 1.72422 17.6341C1.67805 17.6825 1.64481 17.7418 1.62754 17.8065C1.45146 18.4729 1.41692 19.1494 2.33859 19.542C3.46162 20.0197 4.21816 20.1747 5.54001 20.3238C6.76952 20.476 8.01063 20.5121 9.24692 20.4316C9.43984 20.4173 9.62013 20.403 9.79031 20.3912C9.44405 20.9228 8.90908 21.5193 8.14832 21.7813C7.26456 22.0846 8.19719 23.6137 10.899 23.2565C12.1139 23.0964 12.5688 21.8748 12.3472 20.6381C13.1518 20.8984 13.9766 21.2278 14.7609 21.3626C16.3237 21.6254 17.0601 21.2202 18.2092 20.6372C19.1628 20.1511 20.178 19.7969 21.227 19.5841C21.3213 19.5662 21.4189 19.5827 21.502 19.6306C21.5852 19.6785 21.6484 19.7547 21.6802 19.8453C21.8757 20.4047 22.2371 21.3289 22.9119 21.4965C23.6567 21.681 25.0434 21.3491 25.9044 20.8756C25.9535 20.849 25.9964 20.8123 26.0305 20.768C26.0645 20.7237 26.0888 20.6727 26.1019 20.6184C26.115 20.5641 26.1166 20.5076 26.1065 20.4527C26.0964 20.3977 26.0749 20.3455 26.0434 20.2994C25.8913 20.1 25.6873 19.9464 25.4537 19.8554C24.04 19.232 23.7687 18.5917 23.6423 18.1224C23.6277 18.0679 23.6247 18.0108 23.6337 17.9551C23.6427 17.8993 23.6635 17.8461 23.6946 17.7989C23.9204 17.4619 24.5101 16.6742 25.1268 16.7593C25.9069 16.868 25.741 17.6751 26.8303 18.36C27.5312 18.8006 28.2027 18.8225 28.6206 18.6591C28.6747 18.6378 28.7235 18.6049 28.7636 18.5627C28.8036 18.5204 28.8339 18.4699 28.8522 18.4147C28.8705 18.3594 28.8765 18.3009 28.8696 18.2431C28.8628 18.1853 28.8433 18.1297 28.8126 18.0803C28.5843 17.7104 28.2119 16.9691 28.0106 15.8326C27.7663 14.4442 28.3417 12.6749 28.9179 11.7347C29.458 10.8535 29.9769 10.3615 30.3502 10.0927C30.411 10.0471 30.4576 9.98509 30.4844 9.91391C30.5112 9.84273 30.5171 9.76538 30.5014 9.69096C30.4858 9.61653 30.4492 9.54812 30.396 9.49378C30.3427 9.43945 30.2751 9.40144 30.201 9.38423V9.38423ZM8.71784 15.2529C7.57965 14.9505 6.81636 13.9353 6.9638 12.7718C7.15504 11.2554 8.5089 10.0902 10.2798 10.856C12.14 11.6606 11.7381 13.5688 11.3186 14.3641C10.899 15.1594 9.73471 15.5217 8.72121 15.2529H8.71784Z" fill="#eaff3e"/>
<path d="M9.31095 11.9555C8.88549 11.926 8.5603 12.124 8.34631 12.4812C8.03291 13.0077 8.25279 13.782 9.06831 14.0482C9.22247 14.1027 9.38755 14.1191 9.5494 14.0958C9.71125 14.0725 9.86504 14.0103 9.99758 13.9146C10.1301 13.8188 10.2375 13.6923 10.3104 13.546C10.3833 13.3996 10.4196 13.2378 10.4163 13.0743C10.4138 12.3995 9.81054 11.9909 9.31095 11.9555ZM9.56369 13.3034C9.52483 13.3432 9.47698 13.3731 9.42416 13.3906C9.37134 13.408 9.3151 13.4125 9.26019 13.4037C9.20527 13.3948 9.15328 13.3729 9.1086 13.3398C9.06392 13.3067 9.02785 13.2633 9.00344 13.2133C8.87033 12.9521 9.00344 12.7078 9.20732 12.6606C9.27105 12.6407 9.33927 12.6401 9.40332 12.659C9.46737 12.6779 9.52436 12.7154 9.56706 12.7668C9.63337 12.8404 9.67006 12.936 9.67006 13.0351C9.67006 13.1342 9.63337 13.2298 9.56706 13.3034H9.56369Z" fill="#eaff3e"/>
</svg>
