<svg width="65" height="65" viewBox="0 0 65 65" fill="none" xmlns="http://www.w3.org/2000/svg">
<path d="M21.2381 11H18C14.134 11 11 14.134 11 18V47C11 50.866 14.134 54 18 54H47C50.866 54 54 50.866 54 47V18C54 14.134 50.866 11 47 11H43.7619" stroke="#7B1DD4"/>
<path d="M24.6525 8.5H40.3973C41.3885 8.5 42.1071 9.44417 41.8431 10.3995L41.5668 11.3995C41.3872 12.0497 40.7956 12.5 40.121 12.5H24.9288C24.2542 12.5 23.6626 12.0497 23.483 11.3995L23.2067 10.3995C22.9427 9.44417 23.6613 8.5 24.6525 8.5Z" stroke="#7B1DD4"/>
<line x1="16" y1="16.5" x2="24" y2="16.5" stroke="#7B1DD4"/>
<line x1="26" y1="16.5" x2="28" y2="16.5" stroke="#7B1DD4"/>
<line x1="30" y1="16.5" x2="35" y2="16.5" stroke="#7B1DD4"/>
<line x1="37" y1="16.5" x2="41" y2="16.5" stroke="#7B1DD4"/>
<line x1="43" y1="16.5" x2="49" y2="16.5" stroke="#7B1DD4"/>
<line x1="16" y1="20.5" x2="19" y2="20.5" stroke="#7B1DD4"/>
<line x1="21" y1="20.5" x2="24" y2="20.5" stroke="#7B1DD4"/>
<line x1="26" y1="20.5" x2="33" y2="20.5" stroke="#7B1DD4"/>
<line x1="35" y1="20.5" x2="37" y2="20.5" stroke="#7B1DD4"/>
<line x1="39" y1="20.5" x2="49" y2="20.5" stroke="#7B1DD4"/>
<line x1="16" y1="24.5" x2="21" y2="24.5" stroke="#7B1DD4"/>
<line x1="43" y1="24.5" x2="47" y2="24.5" stroke="#7B1DD4"/>
<line x1="16" y1="28.5" x2="20" y2="28.5" stroke="#7B1DD4"/>
<line x1="47" y1="28.5" x2="49" y2="28.5" stroke="#7B1DD4"/>
<line x1="45" y1="48.5" x2="49" y2="48.5" stroke="#7B1DD4"/>
<line x1="44" y1="44.5" x2="49" y2="44.5" stroke="#7B1DD4"/>
<line x1="40" y1="44.5" x2="42" y2="44.5" stroke="#7B1DD4"/>
<path d="M32.5 46.9965C24.4928 46.9965 18 40.5037 18 32.4965C18 24.4893 24.4928 18 32.5 18C40.5072 18 47 24.4928 47 32.5C47 40.5072 40.5072 47 32.5 47V46.9965ZM44.3569 32.4965C44.3569 25.947 39.0494 20.6396 32.5 20.6396C25.9506 20.6396 20.6431 25.9506 20.6431 32.4965C20.6431 39.0423 25.9506 44.3533 32.5 44.3533C39.0494 44.3533 44.3569 39.0459 44.3569 32.4965Z" fill="#F9F9F9"/>
<path d="M34.7893 36.9121C34.7468 36.7954 34.7115 36.6609 34.6796 36.5194C34.5098 35.748 34.4992 34.7007 34.5027 34.4141L34.4709 34.4035C34.0639 35.0864 33.3209 35.61 33.3209 35.61V35.5994L33.2784 35.281C33.565 35.143 33.9189 34.6653 33.9189 34.6653L33.6217 32.2026L33.5332 32.2097C33.098 33.25 32.1993 34.085 32.1993 34.085L32.1922 35.5711L32.1816 37.8392C33.5721 37.8781 34.7751 36.9334 34.7928 36.9157L34.7893 36.9121Z" fill="#F9F9F9"/>
<path d="M29.8469 32.5422L32.1362 33.5188L32.1751 33.4374C31.4922 32.5387 31.2197 31.3462 31.2197 31.3462L30.1335 30.7129L27.968 29.4497C27.2321 30.6421 27.4621 32.1742 27.4621 32.1742C28.2546 32.3122 29.4931 33.0128 29.7761 33.1755L29.8009 33.1543C29.4152 32.4608 29.3338 31.555 29.3338 31.555L29.631 31.6788C29.6063 31.9938 29.8433 32.5422 29.8433 32.5422H29.8469Z" fill="#F9F9F9"/>
<path d="M33.8806 30.2001L31.8885 31.6968L31.938 31.7711C33.0561 31.6296 34.2273 31.9905 34.2273 31.9905L34.9314 31.5872C35.2393 30.6778 35.724 30.002 36.3291 29.358C36.4246 29.2589 36.5166 29.1634 36.6121 29.0749C36 28.5654 35.3879 28.3213 35.3879 28.3213C34.8713 28.9405 33.6435 29.6623 33.3604 29.8251L33.3675 29.8605C34.1601 29.8711 34.988 30.2532 34.988 30.2532L34.7298 30.4478C34.4679 30.2674 33.877 30.2001 33.877 30.2001H33.8806Z" fill="#F9F9F9"/>
<path d="M32.1717 38.0618L31.9488 38.0548L31.9629 35.263C31.3685 34.5271 30.5051 33.8654 29.1818 33.1719C27.8054 32.4501 26.4785 32.2095 25.4135 32.2095C24.582 32.2095 23.9097 32.3545 23.4851 32.5315C22.4732 32.9525 20.8172 34.3289 21.7903 37.5736C22.7562 40.7934 25.318 41.5365 25.3569 41.5471C27.5223 40.5422 27.8585 37.6302 27.8585 37.6302L27.7382 37.5488C27.6214 37.8248 27.2251 38.2777 26.8324 38.2848C26.7581 38.2848 26.6873 38.2741 26.6165 38.2388C25.9266 37.9238 25.6966 36.7562 26.0999 36.2821C26.2804 36.0662 26.521 35.8044 27.2251 35.8079C27.6462 35.8079 28.2371 35.9105 29.0827 36.1724C30.1831 36.5156 30.7882 36.965 31.1243 37.3329C31.4711 37.7115 31.6091 38.2069 31.3296 38.1998C31.2199 38.1998 31.0465 38.1185 30.7988 37.9274C30.4061 37.6231 30.1831 37.202 30.1195 36.8588C29.8364 36.5439 28.3751 36.2219 28.3397 36.2148C29.4436 39.3781 31.188 40.5882 32.0832 40.5847C32.1434 40.5847 32.2 40.5776 32.2495 40.567C32.9855 40.4113 33.4808 39.5232 33.1659 37.9522C32.8546 38.03 32.522 38.0795 32.1717 38.0689V38.0618Z" fill="#F9F9F9"/>
<path d="M27.3656 30.3097C27.454 29.9842 27.585 29.648 27.7796 29.3331L27.8963 29.1456L30.5076 30.6706C31.4311 30.5185 32.4254 30.1045 33.6744 29.3154C36.0097 27.8364 36.9438 25.7418 37.0818 24.7015C37.2233 23.6117 36.8589 21.4958 33.5612 20.7138C30.2635 19.9318 28.3351 21.8178 28.3351 21.8178C28.1228 24.199 30.4793 25.9434 30.4793 25.9434L30.6102 25.8797C30.3979 25.5967 30.1644 24.8501 30.5713 24.5635C31.1905 24.1247 32.3121 24.5069 32.5244 25.0942C32.6766 25.5188 32.8641 26.131 31.1304 27.7303C30.2812 28.5122 29.5912 28.8095 29.1029 28.9192C28.4059 29.0748 27.7194 28.7635 28.7491 28.3424C29.209 28.1549 29.6832 28.1726 30.0158 28.2893C30.4333 28.2009 31.4665 27.0686 31.4665 27.0686C27.9565 26.3999 26.0033 27.4791 25.7415 28.2823C25.5186 28.9722 25.9892 29.8002 27.3691 30.3168L27.3656 30.3097Z" fill="#F9F9F9"/>
<path d="M37.0861 40.1854C37.9601 40.8506 39.9734 41.5971 42.2981 39.1309C44.4635 36.8346 44.0318 34.4108 43.9646 34.0888C43.9611 34.0712 43.9575 34.0605 43.9575 34.0605C42.0044 32.6877 39.3117 33.8518 39.3117 33.8518L39.3011 33.9862C39.6443 33.9473 40.3661 34.103 40.4511 34.5665C40.4546 34.5842 40.4581 34.6019 40.4581 34.6196C40.5289 35.3733 39.6337 36.1552 39.0216 36.0455C38.5758 35.9642 37.953 35.8191 37.4364 33.5192V33.5121C37.1817 32.3834 37.2701 31.6368 37.4223 31.1591C37.5921 30.6213 38.0061 30.2356 38.1016 30.6355C38.1299 30.7416 38.1335 30.9114 38.1016 31.152C38.0344 31.6439 37.7832 32.0472 37.5143 32.2772C37.4577 32.4541 37.5143 32.8292 37.5921 33.1972C37.6983 33.6713 37.8433 34.1313 37.8433 34.1313C39.7009 31.9729 40.1079 30.1189 39.9097 29.1387C39.8602 28.8946 39.7717 28.7035 39.6549 28.5762C39.1313 27.9923 38.0521 28.0348 36.7889 29.2237L36.7818 29.2166C36.6863 29.305 36.5908 29.4006 36.4917 29.5067C35.9397 30.0906 35.5187 30.685 35.2285 31.4068H35.2356C34.8747 32.2985 34.7225 33.3953 34.7862 34.931C34.8075 35.4476 34.8711 35.9323 34.9667 36.3852C35.3842 38.3419 36.3997 39.6617 37.0755 40.1783L37.0861 40.1854Z" fill="#F9F9F9"/>
</svg>
