<svg fill="none" height="25" viewBox="0 0 31 25" width="31" xmlns="http://www.w3.org/2000/svg"><path clip-rule="evenodd" d="m2.41604 4h27.16796c-.7716-1.7659-2.5337-3-4.584-3h-18c-2.05032 0-3.8124 1.2341-4.58396 3zm27.58396 2v14c0 2.7614-2.2386 5-5 5h-18c-2.76142 0-5-2.2386-5-5v-14zm-7 3c-.5523 0-1 .44771-1 1v1c0 .5523.4477 1 1 1h1c.5523 0 1-.4477 1-1v-1c0-.55228-.4477-1-1-1zm-6 1c0-.55229.4477-1 1-1h1c.5523 0 1 .44772 1 1v1c0 .5523-.4477 1-1 1h-1c-.5523 0-1-.4477-1-1zm-4-1c-.5523 0-1 .44771-1 1v1c0 .5523.4477 1 1 1h1c.5523 0 1-.4477 1-1v-1c0-.55228-.4477-1-1-1zm9 6c0-.5523.4477-1 1-1h1c.5523 0 1 .4477 1 1v1c0 .5523-.4477 1-1 1h-1c-.5523 0-1-.4477-1-1zm-4-1c-.5523 0-1 .4477-1 1v1c0 .5523.4477 1 1 1h1c.5523 0 1-.4477 1-1v-1c0-.5523-.4477-1-1-1zm-6 1c0-.5523.4477-1 1-1h1c.5523 0 1 .4477 1 1v1c0 .5523-.4477 1-1 1h-1c-.5523 0-1-.4477-1-1zm-4-1c-.55228 0-1 .4477-1 1v1c0 .5523.44772 1 1 1h1c.55228 0 1-.4477 1-1v-1c0-.5523-.44772-1-1-1zm9 6c0-.5523.4477-1 1-1h1c.5523 0 1 .4477 1 1v1c0 .5523-.4477 1-1 1h-1c-.5523 0-1-.4477-1-1zm-4-1c-.5523 0-1 .4477-1 1v1c0 .5523.4477 1 1 1h1c.5523 0 1-.4477 1-1v-1c0-.5523-.4477-1-1-1zm-6 1c0-.5523.44772-1 1-1h1c.55228 0 1 .4477 1 1v1c0 .5523-.44772 1-1 1h-1c-.55228 0-1-.4477-1-1z" fill="#fff" fill-rule="evenodd"/></svg>