<svg fill="none" height="30" viewBox="0 0 30 30" width="30" xmlns="http://www.w3.org/2000/svg"><g fill="#ff5033"><path d="m27.4729 10.3545c-.3152-.0742-.7795-.0868-1.447.083-1.5954.4072-2.3126 3.1151-3.3376 3.724-.5348.3175-1.5754.0304-2.5425-.3797-.3386-.3838-.5838-.8407-.7165-1.3351-.4213-1.5634-1.5835-2.4846-1.5835-2.4846-.155.5125-.9953 1.2512-1.335 1.5968-.3205-.2373-.6127-.4561-.8159-.6066-.0721-.0544-.1206-.1343-.1355-.2233s.0049-.1803.0554-.2551c.3487-.53751.637-1.11184.8596-1.71259.0229-.06145.0281-.12809.015-.19235-.0131-.06425-.044-.12353-.0892-.17108-.3189-.33895-1.1221-1.13775-2.0173-1.63171-.876-.48506-2.1672-.98422-3.2279-1.0925-2.00251-.20471-3.39466.16762-4.03918.40496-.05005.01816-.09531.04745-.13238.08566s-.06498.08434-.08162.1349c-.01664.05057-.02158.10426-.01445.15701.00713.05276.02616.10321.05563.14754.65894 1.02666 1.22487 2.11012 1.69105 3.23746.02011.04895.02893.1018.02582.15462-.00312.05278-.01809.10428-.04382.15048-.02572.0463-.06153.0861-.10477.1166-.04323.0306-.09279.0509-.14498.0597-.81586.1431-1.78598.0541-2.74424.0504-1.36841-.0059-1.69921.0104-2.77984.4502-.7632.3108-1.11253 1.5516-1.07397 2.5959.00591.1313.04228.2593.10622.3741s.15371.2131.26221.2872c.10849.0741.23274.122.36292.1398.13017.0178.2627.0051.38712-.0372l.01483-.0052c.71647-.2277 1.32688-.0882 2.00255.2626.76691.3975 2.04854 1.2305 2.48391 1.9447s.46504.629-.62079.8285c-1.19041.2225-2.32296.8967-2.89258.8203-.36711-.0492-.71208-.2038-.99311-.445-.04541-.0376-.09953-.0631-.15739-.0743-.05785-.0112-.11758-.0076-.17371.0103-.05612.018-.10683.0497-.14748.0924-.04064.0427-.0699.0949-.08511.1518-.15501.5867-.18542 1.1822.62599 1.5279.98867.4205 1.6547.557 2.81841.6883 1.08241.134 2.17504.1657 3.26342.0949.16984-.0126.32856-.0252.47839-.0356-.30484.468-.77581.9931-1.44555 1.2238-.77803.267.04302 1.6131 2.4216 1.2987 1.0695-.141 1.47-1.2164 1.275-2.3052.7083.2292 1.4344.5192 2.1249.6378 1.3758.2315 2.0241-.1253 3.0357-.6385.8395-.428 1.7333-.7399 2.6567-.9271.0831-.0158.169-.0013.2422.0409s.1289.1092.1569.189c.172.4925.4902 1.3061 1.0843 1.4537.6557.1624 1.8765-.1298 2.6345-.5466.0432-.0235.081-.0558.111-.0948.0299-.039.0514-.0839.0629-.1317s.0129-.0975.004-.1459c-.0088-.0484-.0278-.0944-.0555-.135-.1339-.1755-.3135-.3107-.5192-.3908-1.2446-.5489-1.4834-1.1126-1.5946-1.5257-.013-.048-.0155-.0982-.0076-.1473s.0262-.096.0535-.1375c.1988-.2967.718-.9901 1.2609-.9152.6868.0957.5407.8062 1.4997 1.4092.6171.3879 1.2082.4072 1.5761.2633.0477-.0187.0907-.0477.1259-.0849s.0619-.0817.078-.1303.0214-.1002.0154-.151c-.006-.0509-.0232-.0998-.0502-.1434-.201-.3256-.5288-.9782-.7061-1.9788-.2151-1.2223.2915-2.7798.7988-3.6075.4754-.7758.9323-1.209 1.2609-1.4456.0535-.0401.0945-.0948.1181-.1574.0236-.0627.0288-.1308.0151-.1963-.0138-.0655-.0461-.1258-.0929-.1736-.0469-.0478-.1064-.0813-.1716-.0964zm-18.91302 5.1665c-1.00202-.2662-1.67399-1.16-1.54419-2.1842.16836-1.3351 1.36025-2.3608 2.91927-1.6866 1.63764.7083 1.28384 2.3882.91454 3.0884-.3694.7001-1.39441 1.019-2.28666.7824z"/><path d="m9.08203 12.6181c-.37455-.026-.66084.1483-.84923.4628-.27591.4635-.08233 1.1452.63563 1.3795.13571.048.28104.0624.42353.0419.14248-.0204.27787-.0752.39456-.1595.11668-.0843.21118-.1957.27538-.3245s.0962-.2713.0932-.4153c-.0022-.594-.53325-.9538-.97307-.9849zm.22251 1.1867c-.03421.035-.07634.0613-.12284.0767-.0465.0153-.09601.0193-.14436.0115-.04834-.0078-.09411-.0271-.13345-.0562-.03933-.0292-.07108-.0674-.09258-.1114-.11718-.2299.00001-.445.17949-.4865.05611-.0176.11617-.0181.17256-.0014.05638.0166.10655.0496.14414.0948.05838.0649.09068.149.09068.2363 0 .0872-.0323.1713-.09068.2362z"/></g></svg>