<svg width="65" height="65" viewBox="0 0 65 65" fill="none" xmlns="http://www.w3.org/2000/svg">
<path d="M21.2381 11H18C14.134 11 11 14.134 11 18V47C11 50.866 14.134 54 18 54H47C50.866 54 54 50.866 54 47V18C54 14.134 50.866 11 47 11H43.7619" stroke="#7B1DD4"/>
<path d="M24.6525 8.5H40.3973C41.3885 8.5 42.1071 9.44417 41.8431 10.3995L41.5668 11.3995C41.3872 12.0497 40.7956 12.5 40.121 12.5H24.9288C24.2542 12.5 23.6626 12.0497 23.483 11.3995L23.2067 10.3995C22.9427 9.44417 23.6613 8.5 24.6525 8.5Z" stroke="#7B1DD4"/>
<line x1="16" y1="16.5" x2="24" y2="16.5" stroke="#7B1DD4"/>
<line x1="26" y1="16.5" x2="28" y2="16.5" stroke="#7B1DD4"/>
<line x1="30" y1="16.5" x2="35" y2="16.5" stroke="#7B1DD4"/>
<line x1="37" y1="16.5" x2="41" y2="16.5" stroke="#7B1DD4"/>
<line x1="43" y1="16.5" x2="49" y2="16.5" stroke="#7B1DD4"/>
<line x1="16" y1="20.5" x2="19" y2="20.5" stroke="#7B1DD4"/>
<line x1="21" y1="20.5" x2="24" y2="20.5" stroke="#7B1DD4"/>
<line x1="26" y1="20.5" x2="33" y2="20.5" stroke="#7B1DD4"/>
<line x1="35" y1="20.5" x2="37" y2="20.5" stroke="#7B1DD4"/>
<line x1="39" y1="20.5" x2="49" y2="20.5" stroke="#7B1DD4"/>
<line x1="16" y1="24.5" x2="21" y2="24.5" stroke="#7B1DD4"/>
<line x1="23" y1="24.5" x2="27" y2="24.5" stroke="#7B1DD4"/>
<line x1="29" y1="24.5" x2="35" y2="24.5" stroke="#7B1DD4"/>
<line x1="37" y1="24.5" x2="41" y2="24.5" stroke="#7B1DD4"/>
<line x1="43" y1="24.5" x2="47" y2="24.5" stroke="#7B1DD4"/>
<line x1="16" y1="28.5" x2="20" y2="28.5" stroke="#7B1DD4"/>
<line x1="22" y1="28.5" x2="26" y2="28.5" stroke="#7B1DD4"/>
<line x1="28" y1="28.5" x2="34" y2="28.5" stroke="#7B1DD4"/>
<line x1="36" y1="28.5" x2="45" y2="28.5" stroke="#7B1DD4"/>
<line x1="47" y1="28.5" x2="49" y2="28.5" stroke="#7B1DD4"/>
<line x1="45" y1="48.5" x2="49" y2="48.5" stroke="#7B1DD4"/>
<line x1="44" y1="44.5" x2="49" y2="44.5" stroke="#7B1DD4"/>
<line x1="40" y1="44.5" x2="42" y2="44.5" stroke="#7B1DD4"/>
<g clip-path="url(#clip0_11572_43624)">
<path d="M20 33.6274L29.6583 43.4221L41.8922 36.5019L36.3118 33.308L44.0385 28.7301L35.2387 25.0038L42.9653 22.2357L34.1655 20L28.5852 22.1293L31.268 23.3004L24.078 26.2814L30.0876 29.7947L20 33.6274Z" fill="white"/>
</g>
<defs>
<clipPath id="clip0_11572_43624">
<rect width="24.0385" height="23.4221" fill="white" transform="translate(20 20)"/>
</clipPath>
</defs>
</svg>
