<svg width="65" height="65" viewBox="0 0 65 65" fill="none" xmlns="http://www.w3.org/2000/svg">
<path d="M21.2381 11H18C14.134 11 11 14.134 11 18V47C11 50.866 14.134 54 18 54H47C50.866 54 54 50.866 54 47V18C54 14.134 50.866 11 47 11H43.7619" stroke="#7B1DD4"/>
<path d="M24.6525 8.5H40.3973C41.3885 8.5 42.1071 9.44417 41.8431 10.3995L41.5668 11.3995C41.3872 12.0497 40.7956 12.5 40.121 12.5H24.9288C24.2542 12.5 23.6626 12.0497 23.483 11.3995L23.2067 10.3995C22.9427 9.44417 23.6613 8.5 24.6525 8.5Z" stroke="#7B1DD4"/>
<line x1="16" y1="16.5" x2="24" y2="16.5" stroke="#7B1DD4"/>
<line x1="26" y1="16.5" x2="28" y2="16.5" stroke="#7B1DD4"/>
<line x1="30" y1="16.5" x2="35" y2="16.5" stroke="#7B1DD4"/>
<line x1="37" y1="16.5" x2="41" y2="16.5" stroke="#7B1DD4"/>
<line x1="43" y1="16.5" x2="49" y2="16.5" stroke="#7B1DD4"/>
<line x1="16" y1="20.5" x2="19" y2="20.5" stroke="#7B1DD4"/>
<line x1="21" y1="20.5" x2="24" y2="20.5" stroke="#7B1DD4"/>
<line x1="26" y1="20.5" x2="33" y2="20.5" stroke="#7B1DD4"/>
<line x1="35" y1="20.5" x2="37" y2="20.5" stroke="#7B1DD4"/>
<line x1="39" y1="20.5" x2="49" y2="20.5" stroke="#7B1DD4"/>
<line x1="16" y1="24.5" x2="21" y2="24.5" stroke="#7B1DD4"/>
<line x1="23" y1="24.5" x2="27" y2="24.5" stroke="#7B1DD4"/>
<line x1="29" y1="24.5" x2="35" y2="24.5" stroke="#7B1DD4"/>
<line x1="37" y1="24.5" x2="41" y2="24.5" stroke="#7B1DD4"/>
<line x1="43" y1="24.5" x2="47" y2="24.5" stroke="#7B1DD4"/>
<line x1="16" y1="28.5" x2="20" y2="28.5" stroke="#7B1DD4"/>
<line x1="22" y1="28.5" x2="26" y2="28.5" stroke="#7B1DD4"/>
<line x1="28" y1="28.5" x2="34" y2="28.5" stroke="#7B1DD4"/>
<line x1="36" y1="28.5" x2="45" y2="28.5" stroke="#7B1DD4"/>
<line x1="47" y1="28.5" x2="49" y2="28.5" stroke="#7B1DD4"/>
<line x1="45" y1="48.5" x2="49" y2="48.5" stroke="#7B1DD4"/>
<line x1="44" y1="44.5" x2="49" y2="44.5" stroke="#7B1DD4"/>
<line x1="40" y1="44.5" x2="42" y2="44.5" stroke="#7B1DD4"/>
<path d="M18.9177 34.854L20.7946 38.1777L17.1253 39.4836L16 37.0378L18.9177 34.854Z" fill="white"/>
<path d="M35.9432 35.4655L38.176 39.178L41.2715 34.8759L43.2507 33.6224L41.8542 31.1067L35.9432 35.4655Z" fill="white"/>
<path d="M39.8126 24.778L43.989 31.7006L46.0082 30.2462L44.0468 27.119L48.8947 26.2717L45.8303 21L42.7436 24.7605L41.7963 23.5245L39.8126 24.778Z" fill="white"/>
<path d="M38.0203 23.5159L33.9907 23.6993L28.9649 26.512L23.1162 29.7833L21.9776 30.421L20.1719 33.8234L22.3957 37.5707L24.6373 37.6537L25.0954 30.5389L29.8589 27.9533L37.0463 32.7009L39.6481 30.5826L40.7022 28.1106L38.0203 23.5159Z" fill="white"/>
<path d="M26.6921 37.7846L35.0626 33.7446L35.1738 33.5787L29.8944 30.1064L26.999 31.6351L26.6743 37.7672L26.6921 37.7846Z" fill="white"/>
<path d="M35.3828 35.8716L33.715 36.649L33.8973 38.5795L31.3888 39.0774L31.4823 37.6885L27.0702 39.7413L27.5505 46L33.5282 44.0346L31.4422 40.6497L35.4762 40.13L35.3828 35.8716Z" fill="white"/>
<path d="M20.3854 34.0766L18.2461 32.1024L18.6508 31.373L22.7382 33.3865L20.3854 34.0766Z" fill="white"/>
</svg>
