<svg width="65" height="65" viewBox="0 0 65 65" fill="none" xmlns="http://www.w3.org/2000/svg">
<path d="M21.2381 11H18C14.134 11 11 14.134 11 18V47C11 50.866 14.134 54 18 54H47C50.866 54 54 50.866 54 47V18C54 14.134 50.866 11 47 11H43.7619" stroke="#7B1DD4"/>
<path d="M23.2067 10.3995C22.9427 9.44417 23.6613 8.5 24.6525 8.5H40.3973C41.3885 8.5 42.1071 9.44417 41.8431 10.3995L41.5668 11.3995L42.0488 11.5327L41.5668 11.3995C41.3872 12.0497 40.7956 12.5 40.121 12.5H24.9288C24.2542 12.5 23.6626 12.0497 23.483 11.3995L23.2067 10.3995Z" stroke="#7B1DD4"/>
<line x1="16" y1="16.5" x2="24" y2="16.5" stroke="#7B1DD4"/>
<line x1="26" y1="16.5" x2="28" y2="16.5" stroke="#7B1DD4"/>
<line x1="30" y1="16.5" x2="35" y2="16.5" stroke="#7B1DD4"/>
<line x1="37" y1="16.5" x2="41" y2="16.5" stroke="#7B1DD4"/>
<line x1="43" y1="16.5" x2="49" y2="16.5" stroke="#7B1DD4"/>
<line x1="16" y1="20.5" x2="19" y2="20.5" stroke="#7B1DD4"/>
<line x1="21" y1="20.5" x2="23" y2="20.5" stroke="#7B1DD4"/>
<line x1="35" y1="20.5" x2="37" y2="20.5" stroke="#7B1DD4"/>
<line x1="41" y1="20.5" x2="49" y2="20.5" stroke="#7B1DD4"/>
<line x1="16" y1="24.5" x2="21" y2="24.5" stroke="#7B1DD4"/>
<line x1="44" y1="24.5" x2="47" y2="24.5" stroke="#7B1DD4"/>
<line x1="16" y1="28.5" x2="20" y2="28.5" stroke="#7B1DD4"/>
<line x1="28" y1="28.5" x2="34" y2="28.5" stroke="#7B1DD4"/>
<line x1="47" y1="28.5" x2="49" y2="28.5" stroke="#7B1DD4"/>
<line x1="45" y1="48.5" x2="49" y2="48.5" stroke="#7B1DD4"/>
<line x1="44" y1="44.5" x2="49" y2="44.5" stroke="#7B1DD4"/>
<line x1="40" y1="44.5" x2="42" y2="44.5" stroke="#7B1DD4"/>
<path d="M36.068 41.6458C35.8184 41.5339 35.5282 41.4477 35.2073 41.4358C34.1139 41.3952 33.0066 41.5438 31.9696 41.8964C31.721 41.9806 31.5408 42.0757 31.3892 42.249C31.2367 42.4223 31.1248 42.5085 31.3575 42.6957C31.5903 42.8819 31.9142 42.9195 32.2658 42.9046C33.0928 42.871 34.005 42.759 34.8419 42.6382C35.1222 42.5976 35.4401 42.5709 35.6946 42.4926C35.9492 42.4144 36.1958 42.3708 36.3146 42.1321C36.4335 41.8934 36.3176 41.7597 36.068 41.6468V41.6458Z" fill="white"/>
<path d="M27.8445 37.8237C28.7428 38.1476 29.55 38.1961 30.5028 37.8346C30.9524 37.6642 31.4764 37.377 31.6675 36.7877C32.0439 35.625 32.0954 34.7128 31.5407 33.4302C31.4041 33.1142 30.8524 32.3041 30.2661 32.1357C29.6797 31.9683 28.8458 31.7029 28.1565 31.8871C27.4671 32.0713 26.7907 32.3972 26.3569 32.9805C26.0191 33.4351 25.9092 33.9076 25.8725 34.4533C25.8349 35 25.7824 35.5368 26.036 36.0489C26.4401 36.865 26.9472 37.4988 27.8455 37.8227L27.8445 37.8237ZM28.5348 34.7465C28.5536 34.5662 28.5774 34.4226 28.6893 34.2602C28.8012 34.0977 28.9983 33.9898 29.2014 33.9482C29.4044 33.9066 29.6679 33.9809 29.8441 34.0393C30.0204 34.0977 30.1868 34.3503 30.2284 34.4513C30.3958 34.8613 30.38 35.1684 30.27 35.5408C30.2146 35.729 30.0591 35.826 29.9194 35.8815C29.6233 35.9993 29.3876 35.9835 29.1112 35.8686C28.8349 35.7537 28.6834 35.5437 28.5744 35.2744C28.5061 35.105 28.515 34.9277 28.5338 34.7465H28.5348Z" fill="white"/>
<path d="M37.933 20.4448C37.7072 20.1784 37.2021 20.11 36.7682 19.8773C36.4236 19.6921 36.1274 19.2959 35.7025 19.1473C35.3143 19.0116 34.833 19.1305 34.413 19.0364C33.9931 18.9413 33.6167 18.6323 33.2225 18.5937C32.7729 18.5501 32.347 18.7888 31.9756 18.8126C31.4487 18.8472 30.9515 18.7185 30.7029 18.875C30.5206 18.9889 30.5771 19.2781 30.5147 19.4306C30.4473 19.596 30.2275 19.7842 30.3166 19.9753C30.383 20.1179 30.691 20.1209 30.8524 20.2685C31.1426 20.5329 31.3625 20.9549 31.7468 21.1371C32.1162 21.3114 32.5986 21.2223 32.9878 21.3372C33.4077 21.461 33.7603 21.7957 34.1238 21.869C34.4606 21.9374 34.9142 21.7601 35.346 21.8066C35.7481 21.8502 36.1522 22.1226 36.5315 22.1166C37.0149 22.1087 37.3764 21.8155 37.6378 21.6699C37.8201 21.5689 38.1103 21.6283 38.1806 21.5085C38.2687 21.358 38.0508 21.1727 37.9894 20.9984C37.9409 20.8608 38.0608 20.5953 37.935 20.4468L37.933 20.4448Z" fill="white"/>
<path d="M45.4908 31.2881C45.5483 30.7434 46.0098 30.4492 45.9999 29.8688C45.99 29.3023 45.4512 29.123 45.371 28.4862C45.2987 27.9088 45.6612 27.4641 45.5205 26.8728C45.3799 26.2805 44.5568 26.1835 44.3588 25.6189C44.1607 25.0534 44.5994 24.4502 44.3479 23.9045C44.0963 23.3588 43.3683 23.336 43.0554 22.8566C42.7424 22.3773 43.0435 21.7335 42.6602 21.2927C42.2769 20.852 41.5836 21.0451 41.1537 20.6777C40.7239 20.3102 40.9141 19.7794 40.4169 19.4704C40.2544 19.3693 40.0801 19.3416 39.8999 19.3416C39.679 19.3416 39.4512 19.3832 39.2284 19.3832C39.0768 19.3832 38.9273 19.3634 38.7846 19.298C38.2637 19.0583 38.33 18.1788 37.7665 18.0045C37.6615 17.9718 37.5615 17.959 37.4644 17.959C37.1049 17.959 36.785 18.1333 36.4155 18.1333C36.3472 18.1333 36.2769 18.1273 36.2046 18.1135C35.6351 18.0025 35.3221 17.337 34.7288 17.2865C34.7051 17.2845 34.6823 17.2835 34.6585 17.2835C34.1118 17.2835 33.7325 17.8282 33.1788 17.8282C33.1709 17.8282 33.162 17.8282 33.1541 17.8282C32.5707 17.8104 32.1607 17.0012 31.5714 17.0012C31.5634 17.0012 31.5555 17.0012 31.5476 17.0012C30.9454 17.024 30.6206 17.6787 30.0263 17.744C29.9936 17.748 29.9619 17.749 29.9302 17.749C29.434 17.749 28.9784 17.3459 28.4862 17.3459C28.4278 17.3459 28.3693 17.3518 28.3109 17.3637C27.7166 17.4895 27.475 18.1848 26.9421 18.3839C26.8322 18.4255 26.7213 18.4403 26.6113 18.4403C26.3241 18.4403 26.0389 18.3393 25.7586 18.3393C25.6278 18.3393 25.4971 18.3611 25.3693 18.4264C24.8602 18.684 24.9642 19.3881 24.5334 19.712C24.1026 20.0349 23.4836 19.716 23.0795 20.0884C22.6754 20.4608 22.8923 21.1254 22.5327 21.5324C22.1732 21.9395 21.4918 21.8187 21.159 22.2554C20.8262 22.6912 21.2264 23.2647 21.0035 23.7351C20.7807 24.2056 20.1409 24.2343 19.9765 24.7503C19.8111 25.2653 20.2894 25.8081 20.1706 26.335C20.0517 26.8609 19.3921 27.0075 19.2871 27.5374C19.1811 28.0672 19.7407 28.4961 19.7021 29.0042C19.6635 29.5123 19.0217 29.6707 18.9999 30.1729C18.9781 30.675 19.5922 30.9375 19.6011 31.4248C19.609 31.9111 19.0108 32.1369 19.0514 32.6252C19.092 33.1135 19.7437 33.2521 19.8229 33.7256C19.9022 34.199 19.3297 34.5248 19.4486 35.0012C19.5664 35.4776 20.2369 35.5559 20.3419 36.0402C20.4469 36.5235 19.8942 36.883 20.0052 37.3664C20.1161 37.8497 20.7688 37.9636 20.8629 38.4568C20.956 38.9501 20.3875 39.2977 20.4707 39.7919C20.5539 40.2851 21.2115 40.4426 21.266 40.9497C21.3205 41.4578 20.7173 41.7708 20.743 42.2709C20.7688 42.7711 21.4096 43.0157 21.4106 43.511C21.4126 44.0052 20.7698 44.1983 20.7133 44.644C20.6569 45.0897 21.1689 45.3452 21.1521 45.7424C21.1353 46.1396 20.7648 46.1762 20.6212 46.4872C20.537 46.6684 20.5341 46.821 20.7351 46.9329C21.0877 47.128 21.3323 47.235 21.7741 47.3449C22.8081 47.6004 23.8985 47.8659 24.9048 47.9481C25.8517 48.0065 27.0085 48.0976 27.9207 48.0788C30.1808 48.0323 32.4548 47.8678 34.5971 47.5212C35.8352 47.3211 36.6424 46.8764 37.7031 46.3911C37.8982 46.302 37.9933 46.1376 38.0973 46.0247C38.2013 45.9118 38.1726 45.8395 38.1646 45.7483C38.132 45.3343 38.0894 44.9243 38.0398 44.5162C38.5786 44.5073 39.2462 44.3707 39.9583 43.9953C41.7282 43.0613 43.2465 40.9517 44.2201 38.3726C44.441 38.2518 44.642 38.1022 44.7559 37.8665C44.9946 37.3713 44.649 36.8078 44.9005 36.3225C45.1521 35.8371 45.2739 35.9609 45.4928 35.4538C45.7117 34.9467 45.2363 34.4505 45.4076 33.9395C45.579 33.4294 45.7572 33.3116 45.8771 32.7708C45.9969 32.23 45.4314 31.8358 45.4888 31.2911L45.4908 31.2881ZM45.0322 32.338C45.0788 32.4301 45.1501 32.5687 45.1541 32.6064C45.1065 32.8223 45.0511 32.9302 44.9679 33.0927C44.8916 33.2422 44.7965 33.4274 44.7054 33.6998C44.5499 34.1633 44.6638 34.5714 44.747 34.8695C44.7747 34.9685 44.8163 35.1181 44.8124 35.1567C44.75 35.3003 44.7272 35.3241 44.6598 35.3944C44.5281 35.5311 44.3974 35.6787 44.2419 35.9788C44.0141 36.4175 44.0557 36.8503 44.0854 37.1673C44.0993 37.3158 44.1151 37.4842 44.0874 37.5427C44.0626 37.5932 43.9903 37.6516 43.8655 37.719L43.6229 37.8507L43.5258 38.1092C42.578 40.6189 41.1518 42.5245 39.6126 43.3366C38.9292 43.6972 38.3508 43.7724 37.9854 43.7724C37.6199 43.7724 37.3852 43.6932 37.3277 43.6605C37.1138 43.4783 37.0385 43.3 37.8735 42.27C38.0517 42.0501 38.2062 41.8589 38.3152 41.6688C40.3852 38.0319 38.3073 32.7698 36.5106 30.3066C34.7972 27.9583 33.0709 26.3934 30.2135 26.3934C29.642 26.3934 29.0428 26.4548 28.3822 26.5826C25.6674 27.1046 24.1452 29.6579 24.5037 33.0828L24.5592 33.6384C24.6017 33.5304 24.6463 33.4215 24.6929 33.3145C24.7622 33.1848 24.8394 33.054 24.9345 32.9233C25.4456 32.2181 26.2538 31.714 27.3383 31.4238C27.579 31.3594 27.8454 31.3267 28.1287 31.3267C28.8328 31.3267 29.538 31.5258 30.0521 31.6704L30.1036 31.6853C31.1366 31.9765 31.8576 33.2125 31.9933 33.5285C32.0943 33.7612 32.1765 33.9841 32.2459 34.201C32.2498 34.1574 32.2538 34.1138 32.2577 34.0712L32.2597 34.0494C32.3182 33.4443 32.4459 32.7361 32.952 32.0725C33.4611 31.405 34.1901 31.0039 35.1676 30.8464C35.227 30.5899 35.3092 30.3403 35.4192 30.0996C35.5816 30.3056 35.745 30.5205 35.9104 30.7473C36.0471 30.9345 36.1907 31.1485 36.3383 31.3862C36.2373 31.3832 36.1372 31.3862 36.0431 31.3971C35.3508 31.4753 34.7259 31.6902 34.2891 32.2478C33.9484 32.6816 33.8464 33.1491 33.7919 33.6869C33.7374 34.2257 33.682 34.7635 33.9117 35.2865C34.2772 36.1204 34.7734 36.7711 35.6608 37.1217C36.5493 37.4723 37.3624 37.5446 38.3241 37.2257C38.3498 37.2168 38.3756 37.2079 38.4013 37.199C38.332 36.5087 38.1894 35.8203 38.0012 35.1577C37.9259 35.235 37.8289 35.2825 37.7378 35.3132C37.4387 35.4142 37.199 35.3885 36.9256 35.2696C36.6532 35.1498 36.5017 34.9388 36.3947 34.6724C36.3284 34.505 36.3383 34.3386 36.3631 34.1643C36.3878 33.99 36.4116 33.8593 36.5314 33.7077C36.6503 33.5562 36.8533 33.4641 37.0564 33.4334C37.1613 33.4175 37.2832 33.4334 37.4 33.4601C37.1088 32.7688 36.787 32.1389 36.474 31.609C37.8606 33.9514 39.4225 38.227 37.6704 41.3043C37.3099 41.9372 35.6906 43.2594 36.8622 44.2429C36.885 44.2617 36.9117 44.2805 36.9425 44.2983C36.7038 44.3439 36.4631 44.3815 36.2244 44.4212C34.3079 44.745 32.442 45.1263 30.4829 45.054C29.6519 45.0233 28.919 44.7173 28.4575 43.9913C28.1168 43.4555 28.2019 42.8216 28.4921 42.2729C28.7823 41.7242 29.1528 41.2478 29.7094 40.9339C32.0339 39.6265 34.2089 39.1957 36.8523 39.6097C36.9306 39.6216 37.0068 39.6384 37.0821 39.6562C37.0207 39.4324 36.9563 39.2095 36.8909 38.9857C36.8186 38.9887 36.7473 38.9946 36.675 38.9946C36.0679 38.9946 35.4529 38.8688 34.7942 38.6093C33.4453 38.0785 32.8302 37.0326 32.4845 36.262C32.437 36.7681 32.3162 37.2584 32.1537 37.7625C31.7972 38.8659 30.7612 39.261 30.4215 39.3908C29.8401 39.6126 29.2845 39.7206 28.7229 39.7206C28.1613 39.7206 27.5889 39.6117 26.9629 39.3868C26.538 39.2343 26.1835 39.0313 25.8834 38.7995C26.1359 40.1277 26.335 41.544 26.3914 43.089C26.438 44.3716 26.0121 45.8127 25.4188 47.024C25.2099 47.1161 25.0316 47.1854 24.9266 47.2043C23.9689 47.1221 22.9002 46.8576 21.9553 46.6239C21.8196 46.5902 21.7087 46.5575 21.6087 46.5228C21.7493 46.3545 21.883 46.1138 21.8969 45.7741C21.9147 45.3343 21.6939 45.0204 21.5473 44.8124C21.5314 44.7906 21.5126 44.7638 21.4958 44.7381C21.5225 44.7104 21.5532 44.6807 21.578 44.6559C21.7949 44.442 22.1584 44.0844 22.1574 43.509C22.1554 42.9801 21.8464 42.6285 21.6414 42.3957C21.5978 42.3462 21.5374 42.2769 21.5027 42.2303C21.5304 42.1798 21.5829 42.1036 21.6206 42.0491C21.7969 41.7926 22.0643 41.4053 22.0068 40.8715C21.9484 40.3297 21.5988 40.0138 21.367 39.8038C21.3224 39.7632 21.261 39.7077 21.2234 39.6681C21.2462 39.6186 21.2868 39.5483 21.3155 39.4978C21.4661 39.2343 21.6929 38.8371 21.5948 38.3201C21.4968 37.7992 21.1362 37.512 20.8976 37.3218C20.854 37.2871 20.7936 37.2396 20.7539 37.2019C20.7747 37.1554 20.8074 37.094 20.8312 37.0484C20.9699 36.786 21.1788 36.3888 21.0689 35.8827C20.955 35.3588 20.5767 35.0884 20.3271 34.9101C20.2934 34.8853 20.2498 34.8546 20.2132 34.8269C20.232 34.7932 20.2538 34.7566 20.2716 34.7269C20.4192 34.4783 20.641 34.1029 20.5578 33.6047C20.4756 33.1115 20.1448 32.8253 19.9269 32.6351C19.9012 32.6133 19.8695 32.5856 19.8418 32.5598C19.8626 32.5331 19.8853 32.5053 19.9032 32.4826C20.0824 32.2597 20.3538 31.923 20.3459 31.4149C20.338 30.9236 20.0636 30.5829 19.8834 30.3571C19.8497 30.3155 19.8061 30.261 19.7744 30.2165C19.8051 30.1838 19.8427 30.1462 19.8725 30.1164C20.0834 29.9065 20.4023 29.5895 20.442 29.0606C20.4756 28.611 20.2874 28.2465 20.1498 27.9791C20.1012 27.884 20.0289 27.7444 20.0171 27.683C20.0468 27.6384 20.1488 27.5493 20.2171 27.4898C20.442 27.2927 20.7817 26.9956 20.8946 26.4994C20.9966 26.0488 20.8728 25.6575 20.7728 25.3426C20.7371 25.2307 20.6787 25.0445 20.6826 24.9831C20.7163 24.9474 20.8233 24.881 20.8956 24.8355C21.1402 24.683 21.476 24.473 21.675 24.054C21.8701 23.643 21.8206 23.2449 21.785 22.9537C21.7751 22.8725 21.7602 22.7556 21.7632 22.6972C21.8186 22.6625 21.9712 22.6179 22.0663 22.5902C22.3644 22.503 22.7724 22.3842 23.0894 22.0247C23.4063 21.6661 23.4707 21.2482 23.5182 20.9431C23.5341 20.8411 23.5578 20.6906 23.5786 20.643C23.6331 20.6301 23.7589 20.6262 23.8451 20.6242C24.1561 20.6163 24.5819 20.6044 24.9791 20.3073C25.3564 20.025 25.4981 19.6367 25.6011 19.3525C25.6338 19.2634 25.6813 19.1316 25.714 19.0871C25.7239 19.0841 25.7397 19.0831 25.7596 19.0831C25.8328 19.0831 25.9388 19.1019 26.0507 19.1217C26.2151 19.1514 26.4023 19.1841 26.6123 19.1841C26.8223 19.1841 27.0174 19.1504 27.2036 19.0811C27.6116 18.9276 27.882 18.6384 28.0989 18.4056C28.2336 18.261 28.3733 18.1115 28.4644 18.0917C28.4713 18.0907 28.4783 18.0897 28.4862 18.0897C28.5813 18.0897 28.7506 18.162 28.915 18.2313C29.1894 18.3482 29.5301 18.4928 29.9302 18.4928C29.9897 18.4928 30.0491 18.4898 30.1075 18.4829C30.5998 18.4284 30.9533 18.161 31.2118 17.9649C31.3465 17.8629 31.4852 17.7579 31.5644 17.745C31.6377 17.7708 31.8031 17.9065 31.9032 17.9897C32.1934 18.2284 32.5915 18.5552 33.1333 18.571C33.1491 18.571 33.165 18.571 33.1808 18.571C33.6602 18.571 34.0316 18.3541 34.302 18.1947C34.4367 18.1154 34.5902 18.0263 34.6674 18.0263C34.7447 18.0332 34.8982 18.161 35.0339 18.2749C35.2884 18.4879 35.6054 18.7533 36.0639 18.8424C36.1788 18.8652 36.2977 18.8761 36.4175 18.8761C36.6968 18.8761 36.9385 18.8147 37.1326 18.7652C37.2663 18.7315 37.3812 18.7018 37.4674 18.7018C37.4822 18.7018 37.4951 18.7018 37.508 18.7048C37.5436 18.7622 37.5942 18.8761 37.6288 18.9563C37.7655 19.2683 37.9705 19.7397 38.4776 19.9725C38.7014 20.0755 38.9481 20.125 39.2313 20.125C39.3769 20.125 39.5156 20.1121 39.6374 20.1013C39.7355 20.0923 39.8276 20.0834 39.9028 20.0834C39.9652 20.0834 40.0108 20.0894 40.0276 20.1003C40.0474 20.1121 40.0583 20.126 40.1168 20.3112C40.193 20.5578 40.3089 20.9293 40.6734 21.2412C41.025 21.5423 41.437 21.6206 41.7371 21.677C41.8609 21.7008 42.0679 21.7394 42.1016 21.779C42.1323 21.8147 42.1412 22.0148 42.1461 22.1346C42.159 22.4426 42.1759 22.8636 42.4354 23.2607C42.6859 23.645 43.0425 23.8332 43.3287 23.9837C43.4773 24.062 43.6466 24.1511 43.6754 24.2145C43.7071 24.2828 43.6704 24.4779 43.6387 24.6503C43.5763 24.986 43.4991 25.405 43.6595 25.8636C43.7219 26.0408 43.8111 26.1874 43.9131 26.3132C43.7655 26.1419 43.5823 25.9834 43.4842 25.7873C43.3287 25.4753 43.3654 25.0593 43.1772 24.7979C42.9712 24.5116 42.5641 24.4205 42.3323 24.2016C42.0719 23.956 41.9441 23.5569 41.6698 23.4073C41.3518 23.234 40.9586 23.3588 40.6486 23.3271C40.304 23.2914 39.9266 23.1161 39.6285 23.2766C39.3175 23.4439 39.2709 23.8708 39.1362 24.2194C39.0214 24.5176 38.7302 24.8276 38.7371 25.2158C38.743 25.5427 39.0362 25.8636 39.1254 26.23C39.2046 26.5559 39.0818 26.9699 39.2234 27.3096C39.3551 27.6245 39.7345 27.8305 39.9177 28.1435C40.088 28.4337 40.0663 28.8358 40.2544 29.0715C40.4664 29.336 40.8655 29.3944 41.0904 29.5905C41.3498 29.8163 41.4737 30.2006 41.7331 30.3383C42.0451 30.5037 42.4245 30.372 42.7077 30.4106C43.0613 30.4591 43.4248 30.6394 43.6793 30.4948C43.9596 30.3353 43.9784 29.9164 44.0973 29.5687C44.1953 29.2845 44.4826 28.9883 44.4806 28.6199C44.4786 28.3069 44.1973 27.9949 44.129 27.6473C44.0666 27.3314 44.2161 26.9411 44.1022 26.6153C44.0705 26.5242 44.0161 26.441 43.9527 26.3607C44.1329 26.5677 44.3449 26.7133 44.5192 26.8312C44.6212 26.9005 44.7747 27.0055 44.8005 27.0441C44.8322 27.1778 44.8005 27.3195 44.7401 27.5582C44.6717 27.8315 44.5856 28.1722 44.6371 28.5783C44.7014 29.0884 44.95 29.4212 45.1154 29.642C45.2254 29.7896 45.26 29.8411 45.261 29.8817C45.263 29.9798 45.2184 30.0669 45.1026 30.2709C44.9748 30.4958 44.7995 30.8028 44.7559 31.2099C44.7054 31.6902 44.8966 32.0646 45.0362 32.338H45.0322ZM36.3383 31.3822C36.3819 31.4515 36.4245 31.5238 36.468 31.5971C36.4245 31.5238 36.3809 31.4515 36.3383 31.3822Z" fill="white"/>
</svg>
