<svg width="65" height="65" viewBox="0 0 65 65" fill="none" xmlns="http://www.w3.org/2000/svg">
<path fill-rule="evenodd" clip-rule="evenodd" d="M45.9282 28.527L47.8769 26.4241C47.1898 24.6946 46.2163 23.0933 44.9973 21.6872L42.2192 22.4234C41.2982 21.5349 40.2557 20.7714 39.119 20.1604L39.0078 17.3102C37.2979 16.5782 35.4781 16.1354 33.623 16L32.2129 18.5029C30.9392 18.5285 29.7072 18.7242 28.5388 19.0683L26.4241 17.1086C24.6885 17.7923 23.0819 18.7661 21.6728 19.9882L22.4206 22.7837C21.5351 23.7021 20.774 24.7411 20.1643 25.8738L17.3102 25.9921C16.5649 27.6977 16.1216 29.5197 16 31.377L18.5029 32.7871C18.5285 34.0608 18.7242 35.2928 19.0683 36.4612L17.1086 38.5759C17.7949 40.3058 18.7685 41.9072 19.9882 43.3129L22.7777 42.5736C23.6976 43.4616 24.7387 44.2247 25.8738 44.8357L25.9921 47.6898C27.6965 48.4236 29.5118 48.8665 31.3625 49L32.7725 46.4974C34.0474 46.4731 35.2806 46.2783 36.4502 45.935L38.5615 47.8914C40.2909 47.2043 41.8923 46.2308 43.2984 45.0118L42.5675 42.2287C43.4425 41.3234 44.1965 40.3004 44.8035 39.1858L47.7041 39.0655C48.4382 37.357 48.8764 35.5361 49 33.6807L46.4978 32.2468C46.4749 30.9568 46.2775 29.7093 45.9282 28.527ZM40 32.5C40 36.6422 36.6421 40 32.5 40C28.3579 40 25 36.6422 25 32.5C25 28.3578 28.3579 25 32.5 25C36.6421 25 40 28.3578 40 32.5Z" fill="white"/>
</svg>
