<svg fill="none" height="30" viewBox="0 0 30 30" width="30" xmlns="http://www.w3.org/2000/svg"><g clip-rule="evenodd" fill="#EAFF3E" fill-rule="evenodd"><path d="m18.3294 3.45125c1.8988 1.37412 6.0586 6.95805 7.4952 10.70565.9619 2.386.1249 3.4228-.7495 3.9225-1.1369.3941-2.3734.3941-3.5103 0 1.6865 1.9488.3373 6.1086-.1499 6.9455-.2002.3787-.5299.6728-.9289.8288-.399.1559-.8407.1632-1.2447.0207-.6433-.5205-1.1172-1.2206-1.3616-2.0112.1113.4712.1221.9606.0317 1.4362-.0904.4757-.28.927-.5564 1.3246-.2473.2411-.579.376-.9244.376s-.6771-.1349-.9244-.376c-.5337-.8933-.8304-1.9081-.8619-2.9482-.025 1.0394-.3176 2.0548-.8495 2.9482-.2473.2411-.579.376-.9244.376s-.6771-.1349-.9244-.376c-.2764-.3976-.466-.8489-.5564-1.3246-.0904-.4756-.0796-.965.0317-1.4362-.2444.7906-.7183 1.4907-1.3616 2.0112-.40077.1591-.84704.1599-1.24834.0021-.4013-.1577-.7276-.4621-.91277-.8516-.49968-1.0618-1.84882-5.0467-.1624-6.9455-1.14103.395-2.38173.395-3.52276 0-.94939-.4997-1.71139-1.5365-.81197-3.9225 1.39911-3.7851 5.55894-9.33153 7.49524-10.70565 1.0126-.93321 2.3393-1.45125 3.7163-1.45125 1.3771 0 2.7038.51804 3.7164 1.45125zm-2.0737 5.5717c.6773-.21639 1.3949-.27621 2.0987-.1749.6405.12045 1.2488.37361 1.7856.74316.5369.36954.9905.84729 1.3317 1.40259.3411.5553.5624 1.1759.6494 1.8218.0871.6459.038 1.3029-.144 1.9287-.0994.5565-.3076 1.0879-.6127 1.5637-.305.4759-.701.8868-1.1652 1.2094-.4641.3226-.9874.5505-1.5397.6705-.5524.1201-1.123.13-1.6792.0291-.9483-.0581-1.8555-.4071-2.5983-.9993-.7382.592-1.6415.9411-2.5859.9993-.5563.1026-1.1275.0939-1.6805-.0254-.55298-.1194-1.07687-.347-1.54142-.6698-.46455-.3229-.86057-.7346-1.16519-1.2113-.30463-.4767-.51184-1.009-.60968-1.5662-.31931-.9845-.29704-2.048.06321-3.0183s1.03739-1.79062 1.92183-2.32823c.88444-.5376 1.92445-.761 2.95165-.63405s1.9815.59678 2.7084 1.33348c.5147-.49054 1.134-.85785 1.8113-1.07425z"/><path d="m18.3419 10.0596c-.42-.09192-.8539-.10024-1.2771-.0244-.4232.0758-.8273.2342-1.1892.4662-.362.232-.6747.533-.9202.8859-.2456.3529-.4192.7507-.511 1.1707-.0918-.42-.2654-.8178-.511-1.1707s-.5582-.6539-.9202-.8859c-.3619-.232-.766-.3904-1.1892-.4662-.4232-.07584-.8571-.06752-1.2771.0244-.472.079-.92262.2546-1.32353.5159-.40092.2613-.74348.6026-1.00623 1.0026-.26274.4-.43998.85-.5206 1.3217-.08061.4718-.06287.955.05213 1.4196.05647.428.20039.8398.4228 1.2099s.51857.6904.87005.9412c.35149.2507.75079.4265 1.17308.5163.4223.0898.8586.0918 1.2817.0059.6857-.0591 1.3355-.332 1.8578-.7803.5222-.4483.8905-1.0493 1.0528-1.7181.1648.6698.5354 1.2711 1.0598 1.7193.5243.4482 1.176.7206 1.8633.7791.4233.0878.8602.0873 1.2832-.0018.423-.089.8231-.2646 1.175-.5156.3519-.2511.6482-.5722.8701-.9432s.3646-.7839.4193-1.2127c.1155-.4601.1354-.9389.0587-1.4071-.0768-.4681-.2486-.9155-.505-1.3147-.2563-.3991-.5917-.7415-.9855-1.006-.3937-.2645-.8375-.4456-1.3039-.532zm-7.5327 1.4117c.2404-.0464.4878-.0428.7268.0105s.4645.1551.6624.2992c.198.144.3642.3273.4884.5383.1242.2111.2037.4454.2335.6884.066.2652.0711.5419.015.8094-.0562.2674-.1721.5188-.3391.7351-.1671.2163-.3809.392-.6255.5139-.2445.122-.5135.187-.7868.1902-.2449-.0031-.4867-.0555-.711-.154-.2242-.0986-.4263-.2413-.59422-.4197-.16789-.1784-.29812-.3887-.38293-.6186-.0848-.2298-.12245-.4743-.11068-.7189-.05047-.4358.06958-.8742.33502-1.2235.26544-.3492.65571-.5823 1.08911-.6503zm6.6538.1044c.2277-.0498.4633-.0514.6917-.0049.4124.0621.7847.2816 1.0386.6124s.3697.7472.323 1.1616c.0101.2321-.0266.4639-.1077.6817-.0812.2177-.2053.4169-.3649.5858s-.3515.3041-.5642.3975c-.2128.0934-.4422.1432-.6746.1463-.2588-.0018-.5138-.0623-.7459-.177-.232-.1146-.435-.2804-.5938-.4848-.1587-.2044-.269-.4422-.3226-.6954-.0535-.2532-.0489-.5153.0134-.7664.0249-.2318.0979-.4558.2143-.6577.1165-.202.2738-.3773.462-.5149.1881-.1376.403-.2344.6307-.2842z"/></g></svg>